<svg xmlns="http://www.w3.org/2000/svg" viewBox="0 0 200 72.663" xml:space="preserve" width="200" height="72.663"><path d="M138.326 17.372c3.409 -2.049 11.823 -0.345 11.823 -0.345l-0.671 2.067s-2.23 6.002 -3.192 7.852c-1.016 1.813 -3.047 3.101 -5.005 3.699l0.091 -0.689c0.254 -2.394 0.236 -5.132 -1.324 -7.109 -1.07 -1.36 -3.01 -1.541 -4.606 -1.288 -3.137 0.49 -5.603 2.756 -7.453 5.186 -2.067 2.72 -3.337 5.821 -4.515 8.994 -0.417 1.142 -0.87 2.267 -1.414 3.355 -0.417 0.834 -0.907 1.668 -1.487 2.394 -0.453 0.58 -0.943 1.142 -1.596 1.487 -0.435 0.236 -0.943 0.345 -1.433 0.254 -0.054 -0.018 -0.127 -0.018 -0.163 -0.073 -0.054 -0.054 -0.073 -0.163 -0.073 -0.254 0.036 -1.65 0.544 -3.21 1.124 -4.733 0.635 -1.686 1.324 -3.337 1.977 -5.023 0.852 -2.176 1.65 -4.425 1.85 -6.782 0.036 -0.363 0.054 -0.743 0.054 -1.106 -0.036 -1.396 -0.399 -2.267 -1.414 -3.246 -0.834 -0.381 -1.505 -0.399 -2.412 -0.363 -2.194 0.254 -4.116 1.977 -5.495 3.627l-0.345 0.417c-1.487 1.686 -1.487 1.686 -3.971 5.476l-0.199 0.326 -0.181 -0.181c0.381 -0.979 0.78 -1.94 1.161 -2.92l0.471 -1.197c0.236 -0.58 0.471 -1.179 0.707 -1.759 0.073 -0.199 0.145 -0.381 0.218 -0.562l0.218 -0.544 0.199 -0.508c0.254 -0.671 0.29 -1.07 0.091 -1.777 -0.671 0 -1.36 -0.018 -2.031 -0.018h-0.834c-0.417 0 -0.816 -0.018 -1.233 -0.018h-0.381c-0.435 -0.018 -0.889 0 -1.324 0.054 -0.49 0.363 -0.617 0.671 -0.725 1.269l0.907 0.363c-1.016 5.241 -1.016 5.241 -3.627 10.155l-0.181 0.363c-0.671 1.414 -1.36 2.829 -2.158 4.171 -0.834 1.414 -1.596 3.01 -2.992 3.971 -0.471 0.326 -1.016 0.544 -1.578 0.544 -0.127 0 -0.272 -0.018 -0.363 -0.127 -0.073 -0.091 -0.054 -0.199 -0.054 -0.308 0.181 -2.067 0.743 -4.062 1.288 -6.057 0.471 -1.723 0.961 -3.445 1.487 -5.15 1.106 -3.591 2.321 -7.163 3.627 -10.681 1.215 -3.282 2.502 -6.528 3.917 -9.72 1.052 -2.376 2.14 -4.769 3.5 -6.982 0.29 -0.471 0.58 -0.925 0.925 -1.378 0.199 -0.254 0.471 -0.689 0.762 -0.852l0.345 -0.272 -0.363 -0.725c-1.052 0 -5.168 -0.073 -6.256 1.505 -1.686 2.448 -6.438 13.909 -7.127 15.777l-0.598 1.632c-0.508 1.414 -1.016 2.811 -1.505 4.225 -0.816 -1.433 -1.723 -2.539 -3.482 -2.629 -4.08 -0.218 -7.544 2.92 -9.756 6.02 -1.124 1.578 -2.122 3.282 -2.956 5.041 -0.979 2.031 -1.65 4.189 -2.629 6.22 -0.199 0.399 -0.399 0.798 -0.635 1.179 -0.381 0.653 -0.816 1.288 -1.342 1.832 -0.254 0.272 -0.544 0.526 -0.834 0.743 -0.417 0.308 -0.816 0.689 -1.686 0.417 -0.725 -0.218 -0.236 -2.339 0 -3.246 0.236 -0.889 0.544 -1.759 0.816 -2.629 0.417 -1.324 0.852 -2.666 1.269 -3.989 0.399 -1.251 0.798 -2.502 1.215 -3.754 0.036 -0.091 0.363 -1.36 0.435 -1.36H71.267c-0.381 0 -0.743 0 -1.124 0.018 -0.181 0.181 -0.181 0.181 -0.308 0.49 -0.435 1.07 -0.798 2.158 -1.269 3.228 -0.471 1.052 -0.979 2.104 -1.523 3.119 -1.016 1.868 -2.085 3.772 -3.445 5.422 -0.852 1.034 -1.904 2.376 -3.391 2.357 -0.308 0 -0.635 -0.109 -0.834 -0.345s-0.272 -0.544 -0.29 -0.852c-0.091 -1.034 0.127 -2.14 0.345 -3.155 0.508 -2.285 1.396 -4.479 2.521 -6.528 0.526 -0.961 1.106 -1.904 1.741 -2.793 0.49 -0.707 1.016 -1.378 1.578 -2.031 1.215 -1.306 2.466 -2.321 4.316 -2.376 0.381 -0.018 0.707 0.272 0.925 0.544 0.471 0.598 0.925 1.179 1.668 1.414 0.689 0.218 1.578 0.163 2.249 -0.091 0.943 -0.363 1.65 -1.342 2.085 -2.212 0.236 -0.471 0.399 -0.997 0.381 -1.523 -0.036 -0.743 -1.124 -1.034 -1.723 -1.052 -1.124 0.308 -2.031 0.979 -2.865 1.795l-0.345 0.381c0 -0.653 -0.181 -0.907 -0.598 -1.378 -0.78 -0.653 -1.777 -0.816 -2.756 -0.852 -2.956 0.109 -5.839 1.795 -7.834 3.917l-0.417 0.49c-2.122 2.412 -3.717 4.987 -5.241 7.798 -1.016 1.904 -1.995 3.863 -3.282 5.622 -1.541 2.122 -3.917 4.66 -6.818 4.153 -0.435 -0.073 -0.852 -0.218 -1.197 -0.508 -0.526 -0.435 -0.743 -1.142 -0.816 -1.813 -0.091 -0.816 -0.127 -1.686 -0.054 -2.502 0.018 -0.272 0.073 -2.013 0.363 -2.067 0.979 -0.181 1.868 -0.417 2.756 -0.834l0.381 -0.181c0.979 -0.471 1.94 -0.961 2.865 -1.523 2.738 -1.759 5.186 -4.352 5.966 -7.598 0.145 -1.251 0.127 -2.357 -0.544 -3.445 -0.925 -0.961 -1.94 -1.396 -3.282 -1.487 -2.956 -0.036 -5.313 1.414 -7.417 3.409 -2.212 2.176 -3.971 4.824 -5.186 7.689 -1.179 2.793 -2.085 6.184 -1.668 9.23q0.136 1.034 0.49 2.013c0.308 0.834 0.725 1.65 1.36 2.303 0.87 0.889 2.085 1.396 3.319 1.541 2.557 0.308 4.896 -0.707 6.818 -2.303 0.798 -0.653 1.523 -1.378 2.194 -2.14 0.635 -0.707 1.868 -2.212 1.868 -2.212s0.127 1.414 0.199 1.85c0.127 0.889 0.272 1.795 0.671 2.611 0.363 0.743 0.943 1.378 1.668 1.759 0.743 0.381 1.632 0.471 2.466 0.326 2.049 -0.345 3.772 -1.832 5.114 -3.319 0.562 -0.598 1.07 -1.251 1.523 -1.94 0.435 -0.653 1.269 -2.448 1.269 -2.448h0.363c-0.544 1.469 -0.907 3.192 -0.635 4.751 0.199 1.124 0.816 2.23 1.85 2.738 0.762 0.381 1.686 0.399 2.521 0.163 2.575 -0.689 4.298 -2.938 5.712 -5.041l0.163 -0.272c0.218 0.181 0.218 0.181 0.218 0.544 0.036 0.635 0.091 1.233 0.236 1.85 0.363 1.124 1.052 2.104 2.067 2.72 1.197 0.508 2.394 0.453 3.645 0.127 3.355 -1.124 5.567 -4.534 7.181 -7.489l0.254 -0.471s-0.598 3.155 -0.598 4.842c0.127 1.342 0.617 2.122 1.596 3.028 0.925 0.453 1.795 0.399 2.811 0.308 2.448 -0.417 4.225 -2.793 5.549 -4.697l0.254 -0.381 0.181 0.181c-0.181 0.435 -0.345 0.889 -0.526 1.324l-0.218 0.544 -0.218 0.526 -0.199 0.508c-0.29 0.707 -0.326 0.852 -0.127 1.632h4.896c0.326 -0.671 0.671 -1.342 0.961 -2.031l0.218 -0.544 0.236 -0.617c1.269 -3.319 2.484 -6.691 4.189 -9.829 1.451 -2.666 3.264 -5.64 6.075 -7.036 0.345 -0.181 0.743 -0.326 1.106 -0.199 0.145 0.054 0.272 0.145 0.308 0.29q0.027 0.136 0 0.272c-0.29 2.158 -1.034 4.171 -1.759 6.22 -0.762 2.194 -1.541 4.37 -2.176 6.601l-0.127 0.435c-0.272 1.034 -0.417 1.977 -0.435 3.047 0.018 1.233 0.29 2.104 1.161 3.01 1.034 0.689 1.904 0.852 3.155 0.653 2.992 -0.707 4.878 -3.445 6.401 -5.912l0.236 -0.381c0.236 1.85 0.562 3.591 1.868 4.987 1.251 1.161 2.72 1.668 4.443 1.596 2.793 -0.308 4.951 -1.977 6.673 -4.098l0.236 -0.29c1.505 -1.868 2.702 -3.899 3.445 -6.202l0.199 -0.635c0.236 -0.798 0.49 -1.596 0.725 -2.394 0.054 -0.181 0.109 -0.381 0.199 -0.562 0.345 -0.653 4.606 -2.23 4.806 -2.72 -0.997 2.502 -1.922 5.204 -2.629 7.798 -0.508 1.795 -0.925 3.754 -0.544 5.603 0.308 1.541 1.269 2.92 2.847 3.3 1.016 0.254 2.085 0.109 3.065 -0.254 1.179 -0.435 2.249 -1.179 3.155 -2.067 1.233 -1.197 3.173 -3.971 3.173 -3.971s0.254 1.487 0.399 1.886c0.272 0.707 0.58 1.396 0.997 2.013 1.07 1.596 2.793 2.43 4.715 2.394 3.028 -0.054 5.658 -1.85 7.689 -3.971 2.285 -2.357 4.171 -5.078 5.839 -7.888 0.762 -1.269 2.339 -4.153 2.339 -4.153 0.145 0.544 0.29 1.07 0.435 1.596l0.181 0.653c0.381 1.414 0.743 2.829 1.016 4.28 -1.07 0.653 -2.067 1.396 -3.101 2.104 -2.648 1.832 -4.987 4.606 -6.383 7.507 -1.233 2.557 -1.686 5.803 0.236 8.16 1.124 1.378 3.137 1.904 4.842 1.922 2.013 0.018 4.026 -0.562 5.73 -1.65 3.337 -2.14 5.005 -6.075 5.44 -9.883 0.181 -1.541 0.181 -3.119 0 -4.66 -0.163 -1.541 -0.58 -3.028 -0.78 -4.552 -0.018 -0.181 1.523 -0.762 1.723 -0.834 1.904 -0.707 4.116 -1.016 6.147 -0.653 1.306 0.236 2.575 0.816 3.554 1.705 1.088 0.997 1.741 2.412 2.176 3.79 1.306 5.041 0.036 10.119 -2.521 14.543 -1.94 3.373 -5.132 6.129 -8.505 7.979 -3.989 2.176 -8.559 3.228 -13.075 3.409 -4.66 0.199 -9.321 -0.508 -13.836 -1.596 -6.982 -1.705 -13.637 -4.425 -20.491 -6.601 -6.601 -2.104 -13.437 -3.663 -20.401 -3.699 -1.251 0 -2.484 0.036 -3.736 0.127 -6.093 0.453 -12.621 2.013 -17.082 6.456 -2.648 2.629 -3.663 5.223 -3.935 7.779 -0.036 0.345 -0.181 2.666 0.218 2.974 -0.181 -0.145 2.285 -3.137 2.557 -3.427 0.997 -1.088 2.158 -2.031 3.427 -2.793 5.984 -3.572 12.658 -5.422 19.585 -5.966 7.326 -0.58 14.598 0.218 21.725 1.94 2.865 0.689 5.694 1.505 8.523 2.357 4.606 1.414 9.321 2.738 14.09 3.409 4.697 0.671 9.72 0.943 14.417 0.181 2.92 -0.471 5.785 -1.396 8.396 -2.811 3.736 -2.013 6.927 -4.878 9.266 -8.432 0.834 -1.269 1.541 -2.611 2.104 -4.008 1.668 -4.407 2.376 -9.702 0.417 -14.145 -1.414 -3.228 -4.824 -5.585 -8.36 -5.658 -2.521 -0.054 -5.078 0.798 -7.254 2.013 0 -0.544 -1.396 -4.606 -1.741 -6.492 -0.29 -1.523 -0.508 -3.155 -0.054 -4.679 0.399 -1.306 1.342 -2.539 2.847 -2.43 0.363 0.018 0.743 0.145 0.961 0.417 0.471 0.58 0.326 1.686 0.254 2.376 -0.109 0.87 -0.399 2.847 -0.399 2.847 0.943 -0.417 1.741 -0.943 2.285 -1.832 0.798 -1.306 1.215 -3.464 0.127 -4.733 -0.671 -0.798 -1.705 -1.269 -2.702 -1.469 -1.596 -0.326 -3.319 0.036 -4.66 0.961 -3.5 2.43 -3.464 6.818 -5.059 10.373 -0.054 0.127 -0.109 0.254 -0.181 0.381 -1.614 3.373 -3.427 6.945 -6.129 9.575 -1.142 1.106 -2.466 2.031 -3.935 2.629 -1.142 0.453 -2.394 0.707 -3.445 -0.127 -0.562 -0.435 -0.943 -1.088 -1.142 -1.777 -0.326 -1.142 -0.363 -2.521 0.163 -3.609 0.381 -0.78 1.233 -1.106 2.013 -1.396 2.974 -1.161 6.002 -2.974 7.925 -5.567 1.36 -2.049 2.339 -4.044 1.886 -6.546 -0.453 -0.925 -1.016 -1.723 -1.958 -2.194 -1.741 -0.562 -3.482 -0.435 -5.168 0.254 -3.645 1.723 -6.256 5.132 -7.888 8.741 -0.78 1.723 -1.451 3.482 -2.194 5.204 -0.653 1.505 -1.378 3.01 -2.303 4.388 -0.852 1.288 -1.85 2.72 -3.409 3.173 -0.471 0.145 -1.106 0.109 -1.36 -0.308 -0.127 -0.218 -0.127 -0.49 -0.127 -0.743 0.127 -3.445 7.834 -24.136 7.834 -24.136s4.334 0.471 6.528 0.363c3.935 -0.199 8.541 -1.723 10.899 -5.114 0.49 -0.707 0.943 -1.56 1.088 -2.43 0.073 -0.399 0.29 -1.632 -0.199 -1.886 -0.852 1.813 -1.668 3.391 -3.3 4.588 -4.026 2.484 -9.013 2.666 -13.564 1.759 0.326 -1.324 5.495 -14.87 5.495 -14.87s-5.295 -0.218 -6.256 1.813c-1.995 4.243 -5.023 11.95 -5.023 11.95 0 0.018 -3.971 -0.707 -4.388 -0.743 -1.505 -0.127 -3.028 -0.091 -4.497 0.199 -2.502 0.49 -6.401 2.067 -6.528 5.096m30.393 6.274c0.653 -0.562 1.469 -1.251 2.357 -1.251 0.326 0.363 0.326 0.363 0.544 0.907 0.181 1.578 -0.399 2.956 -1.088 4.352 -1.614 2.502 -3.808 4.443 -6.71 5.259 0 -2.992 2.901 -7.163 4.896 -9.266M44.12 33.548c0.091 -0.49 0.254 -0.979 0.435 -1.433 1.106 -2.847 3.028 -6.129 5.694 -7.779 0.254 -0.163 0.526 -0.308 0.834 -0.345s0.635 0.036 0.834 0.272c0.181 0.218 0.218 0.508 0.236 0.78 0.109 3.228 -2.593 6.546 -5.223 8.142 -0.707 0.435 -1.487 0.78 -2.303 0.979 -0.58 0.145 -0.598 0.054 -0.508 -0.544zm49.397 -6.619c-0.58 4.878 -4.425 11.823 -8.178 15.015l-0.435 0.326c-0.635 0.49 -0.979 0.725 -1.777 0.798 -0.617 -0.018 -0.617 -0.018 -0.961 -0.435 -0.308 -0.653 -0.381 -1.215 -0.345 -1.94 0.598 -4.932 2.92 -11.497 6.8 -14.779l0.453 -0.345c1.142 -0.943 2.521 -1.632 4.008 -0.889 0.453 0.725 0.453 1.396 0.435 2.249m43.739 9.865c-0.036 0.127 -0.073 0.236 -0.091 0.272 -0.562 1.523 -1.306 2.974 -2.212 4.334 -1.07 1.596 -2.466 3.464 -4.515 3.79 -0.526 0.091 -1.124 -0.054 -1.487 -0.435 -0.889 -0.925 -0.635 -2.756 -0.562 -3.917 0.091 -1.451 0.326 -2.901 0.707 -4.298 0.762 -2.901 2.031 -5.894 3.808 -8.305 0.181 -0.254 1.016 -1.578 1.324 -1.578h0.163c0.073 1.378 0.018 2.956 0.725 4.189 0.598 1.016 1.632 1.614 2.72 2.031l0.363 0.127 0.109 0.036c0.109 0.054 -0.743 2.829 -1.052 3.754m1.523 -5.585s-0.326 -0.018 -0.508 -0.018c-1.741 -0.073 -2.502 -2.14 -2.502 -3.609 0 -0.798 0.199 -1.596 0.58 -2.285 0.326 -0.598 0.762 -0.87 1.469 -0.852 0.961 0.018 1.251 0.979 1.378 1.777 0.199 1.251 0.145 2.502 -0.036 3.754 -0.054 0.49 -0.381 1.233 -0.381 1.233m40.802 14.779c-0.181 2.793 -0.961 5.894 -3.083 7.87 -1.306 1.034 -2.466 1.56 -4.153 1.505 -0.907 -0.109 -1.505 -0.762 -2.085 -1.433 -0.508 -0.997 -0.562 -1.886 -0.417 -2.992C170.822 46.06 174.776 42.796 178.656 40.076c0.363 0.562 0.471 0.979 0.562 1.632l0.073 0.417c0.218 1.306 0.326 2.539 0.29 3.863"/><path d="M81.657 52.172c-3.772 -1.088 -7.544 0.762 -10.391 3.119 -1.433 1.179 -2.756 2.539 -3.627 4.189 1.705 -1.795 3.609 -3.445 5.821 -4.552s4.769 -1.65 7.199 -1.179c0.725 0.145 1.487 0.399 1.958 0.979 0.689 0.852 0.562 2.085 0.199 3.119 -1.269 3.645 -5.023 6.147 -8.432 7.598 -3.699 1.578 -7.779 2.176 -11.769 2.049h-0.109c-7.906 -0.272 -16.284 -3.192 -21.706 -9.14 -2.92 -3.228 -5.078 -7.036 -6.855 -10.989 -1.958 -4.37 -3.355 -8.994 -5.404 -13.347 -0.254 -0.526 -0.508 -1.034 -0.816 -1.523 -0.073 -0.109 -0.743 -1.324 -0.852 -1.288 4.261 -0.798 8.396 -2.629 11.624 -5.549 3.246 -2.938 5.495 -6.855 5.948 -11.261 0.073 -0.743 0.109 -1.487 0.073 -2.212 -0.163 -3.083 -1.414 -5.93 -3.717 -7.997C37.936 1.777 34.328 0.508 30.646 0.145c-3.79 -0.381 -7.634 0.127 -11.279 1.179 -4.243 1.233 -8.342 3.246 -11.696 6.147C6.528 8.45 5.458 9.538 4.497 10.699 1.759 14.145 -0.181 18.678 -0.036 23.139c0.091 2.956 1.414 5.712 3.754 7.526 1.868 1.106 3.899 1.469 6.057 0.997 2.756 -0.598 4.715 -3.264 5.041 -5.984 0.054 -0.453 0.073 -0.925 -0.054 -1.378 -0.054 -0.218 -0.163 -0.435 -0.363 -0.526 -0.49 -0.236 -0.598 0.508 -0.689 0.798 -0.743 2.484 -3.065 6.02 -6.129 5.168 -1.179 -0.326 -2.104 -1.269 -2.611 -2.376 -0.889 -1.94 -0.58 -4.316 -0.181 -6.329 0.417 -2.122 1.161 -4.189 2.23 -6.075C9.121 11.243 12.222 8.088 15.94 5.966 19.73 3.808 24.136 2.72 28.489 2.865c2.956 0.109 6.093 0.889 7.997 3.155 2.376 2.847 2.376 7.072 1.505 10.481 -0.725 2.865 -2.122 5.549 -4.171 7.689 -3.119 3.264 -7.58 5.186 -12.095 5.186 1.922 -5.168 3.826 -10.355 5.748 -15.523 0.598 -1.632 1.433 -3.464 3.101 -3.917 0.526 -0.145 1.106 -0.145 1.541 -0.435s0.58 -1.124 0.073 -1.324l-10.663 -0.054c-0.345 0 -0.707 0 -1.016 0.163s-0.544 0.526 -0.417 0.852c0.218 0.635 1.215 0.381 1.759 0.743 0.526 0.345 0.49 1.124 0.363 1.741 -0.308 1.469 -0.834 2.883 -1.36 4.298 -3.192 8.577 -6.383 17.173 -9.575 25.75 -0.671 1.795 -1.215 3.772 -2.067 5.495 -0.925 1.324 -1.904 2.085 -3.482 2.466 -0.635 0.145 -0.961 0.163 -1.414 0.617 -0.036 0.471 -0.036 0.471 0 0.907 0.181 0.181 0.181 0.181 0.707 0.199H17.227c0.544 -0.036 0.544 -0.036 0.907 -0.399 0.036 -0.471 0.036 -0.471 0 -0.907 -0.181 -0.181 -0.181 -0.181 -0.58 -0.272 -0.852 -0.199 -1.306 -0.29 -1.832 -0.997 -0.036 -2.285 5.313 -17.046 5.313 -17.046 0.707 -0.054 0.707 -0.054 1.197 0.218 0.635 0.363 1.215 2.194 1.505 2.847 0.907 2.049 1.433 4.171 1.958 6.347 1.052 4.461 2.14 8.994 4.153 13.165 1.705 3.518 4.026 6.782 6.837 9.484 0.635 0.598 1.288 1.179 1.977 1.723 2.303 1.85 4.878 3.373 7.616 4.479 8.414 3.3 18.624 3.736 27.038 0.163 4.987 -2.122 10.101 -5.857 11.642 -11.316 0.453 -1.614 0.399 -3.464 -0.562 -4.842 -0.671 -0.925 -1.632 -1.523 -2.738 -1.832"/></svg>